<svg xmlns="http://www.w3.org/2000/svg" width="843.000000pt" height="116.000000pt" viewBox="0 0 843.000000 116.000000" preserveAspectRatio="xMidYMid meet"><g transform="translate(0.000000,116.000000) scale(0.100000,-0.100000)" fill="#000000" stroke="none"><path d="M7689 1133 c-13 -36 -396 -1024 -420 -1085 l-19 -48 48 0 47 0 220 567 c121 311 221 572 223 580 3 9 -9 13 -43 13 -40 0 -47 -3 -56 -27z"></path><path d="M2570 630 l0 -450 95 0 c93 0 95 0 95 23 l0 24 56 -29 c231 -116 454 137 379 427 -38 144 -136 228 -267 229 -57 0 -73 -4 -117 -32 l-51 -31 0 144 0 145 -95 0 -95 0 0 -450z m394 20 c105 -92 50 -309 -79 -310 -127 0 -181 206 -80 307 28 28 40 33 79 33 36 0 52 -6 80 -30z"></path><path d="M4760 976 c0 -129 0 -130 -127 -134 -102 -4 -96 -1 -117 -69 l-7 -23 125 0 125 0 3 -250 3 -250 33 -32 32 -33 165 -3 165 -3 0 45 0 46 -150 0 -150 0 0 240 0 240 150 0 150 0 0 45 0 45 -150 0 -150 0 0 120 0 120 -50 0 -50 0 0 -104z"></path><path d="M6670 630 l0 -450 55 0 55 0 0 250 0 249 31 35 c23 26 43 38 84 47 94 21 172 -19 195 -100 5 -20 10 -136 10 -258 l0 -223 51 0 50 0 -3 263 -3 264 -30 49 c-52 82 -159 122 -257 95 -51 -15 -79 -36 -107 -82 l-21 -34 0 173 0 172 -55 0 -55 0 0 -450z"></path><path d="M312 783 l-273 -158 3 -55 3 -54 255 -148 c140 -82 263 -153 273 -159 15 -9 17 -4 17 45 l0 55 -225 127 c-124 71 -225 131 -225 134 0 4 98 62 217 129 120 68 222 126 226 131 5 4 7 30 5 59 l-3 51 -273 -157z"></path><path d="M7840 887 l0 -54 225 -128 c124 -70 225 -130 225 -135 0 -4 -101 -65 -225 -135 l-225 -127 0 -55 0 -55 53 31 c28 17 152 88 274 158 l222 128 1 56 0 55 -266 155 c-147 85 -271 156 -275 157 -5 2 -9 -21 -9 -51z"></path><path d="M1063 851 c-48 -12 -120 -58 -147 -94 -47 -61 -68 -126 -74 -218 -9 -163 55 -291 173 -345 81 -38 184 -29 245 22 l30 26 0 -31 0 -31 95 0 95 0 0 330 0 330 -95 0 -95 0 0 -26 c0 -26 -1 -26 -22 -10 -58 42 -144 62 -205 47z m169 -191 c85 -66 78 -259 -12 -305 -48 -25 -94 -19 -134 16 -76 66 -75 224 2 286 36 30 109 31 144 3z"></path><path d="M1843 850 c-18 -4 -49 -19 -68 -34 l-35 -27 0 25 c0 26 0 26 -90 26 l-90 0 0 -330 0 -330 95 0 95 0 0 221 0 221 34 34 c40 40 65 43 103 10 l28 -24 5 -194 c5 -159 9 -200 24 -230 l18 -38 99 0 100 0 -23 31 c-22 29 -23 41 -26 207 -2 154 -1 182 15 212 33 64 106 75 141 22 14 -21 18 -60 22 -218 7 -252 4 -248 151 -252 95 -2 102 -1 83 12 -37 26 -43 64 -46 281 l-3 210 -30 60 c-40 79 -90 109 -185 109 -69 0 -115 -17 -161 -60 l-26 -25 -36 34 c-50 48 -120 65 -194 47z"></path><path d="M3503 850 c-296 -62 -343 -505 -68 -648 94 -48 275 -39 356 19 23 16 27 28 33 90 3 40 5 74 2 76 -2 2 -21 -4 -43 -15 -41 -21 -127 -42 -171 -42 -70 0 -162 54 -162 94 0 14 24 16 205 16 l205 0 0 55 c0 243 -155 398 -357 355z m107 -165 c30 -15 60 -61 60 -90 0 -13 -18 -15 -115 -15 l-115 0 15 36 c8 20 15 38 15 40 0 3 15 13 33 24 38 24 68 25 107 5z"></path><path d="M5493 846 c-98 -31 -160 -96 -193 -205 -38 -120 -18 -274 46 -359 37 -49 49 -59 114 -90 46 -22 68 -26 137 -25 116 0 193 39 247 124 16 26 16 26 -22 51 l-38 26 -33 -39 c-58 -69 -133 -91 -223 -65 -84 24 -138 97 -138 186 l0 40 246 0 247 0 -6 74 c-7 98 -37 165 -99 221 -77 69 -184 92 -285 61z m194 -102 c54 -40 99 -140 78 -174 -4 -6 -74 -10 -191 -10 l-184 0 0 29 c0 63 52 138 115 167 44 21 147 14 182 -12z"></path><path d="M6190 840 c-79 -27 -143 -98 -171 -192 -18 -58 -21 -86 -16 -162 6 -112 27 -171 77 -229 110 -125 348 -122 441 6 16 22 29 45 29 51 0 6 -15 20 -33 32 l-32 21 -43 -48 c-35 -39 -52 -50 -95 -59 -94 -21 -180 20 -218 105 -21 46 -26 213 -9 277 24 84 105 135 201 126 55 -6 93 -28 125 -75 l20 -30 37 19 c43 21 45 30 16 73 -65 94 -201 129 -329 85z"></path><path d="M3943 510 l112 -330 107 0 106 0 110 330 110 330 -102 0 -101 0 -60 -220 c-33 -121 -62 -216 -66 -212 -3 4 -32 103 -64 220 l-59 212 -103 0 -102 0 112 -330z"></path></g></svg>