<?xml version="1.0" standalone="no"?>
<!DOCTYPE svg PUBLIC "-//W3C//DTD SVG 20010904//EN"
 "http://www.w3.org/TR/2001/REC-SVG-20010904/DTD/svg10.dtd">
<svg version="1.0" xmlns="http://www.w3.org/2000/svg"
 width="216.000000pt" height="233.000000pt" viewBox="0 0 216.000000 233.000000"
 preserveAspectRatio="xMidYMid meet">

<g transform="translate(0.000000,233.000000) scale(0.100000,-0.100000)"
fill="#000000" stroke="none">
<path d="M985 2220 c-417 -37 -773 -344 -877 -756 -31 -124 -31 -362 0 -476
51 -187 135 -333 266 -464 131 -131 276 -215 464 -266 111 -31 373 -31 484 0
347 95 608 340 711 667 123 391 -7 825 -324 1078 -205 164 -458 240 -724 217z
m170 -695 c79 -17 176 -61 285 -128 65 -41 82 -47 128 -47 61 0 217 -30 315
-60 103 -32 114 -60 73 -189 -25 -79 -44 -101 -86 -101 -24 0 -25 3 -22 39 18
184 -221 284 -341 142 -45 -53 -55 -118 -31 -198 l6 -23 -382 0 c-360 0 -382
1 -375 18 39 95 -6 211 -100 253 -140 64 -293 -53 -270 -207 l6 -43 -67 18
c-88 25 -107 44 -112 121 -4 48 -1 65 13 80 14 16 17 30 12 69 -9 72 8 89 103
103 56 8 101 24 180 63 128 64 206 93 285 105 79 12 292 4 380 -15z m-545
-337 c134 -68 101 -259 -46 -276 -55 -6 -96 11 -134 55 -25 28 -30 42 -30 86
0 67 27 112 83 137 54 25 73 25 127 -2z m1110 0 c57 -29 94 -94 85 -148 -24
-133 -172 -175 -264 -76 -19 20 -26 40 -28 84 -5 72 19 115 80 142 54 25 73
25 127 -2z"/>
<path d="M783 1490 c-89 -23 -124 -41 -157 -80 -49 -59 -45 -60 154 -60 l180
0 0 28 c0 15 -3 51 -6 80 l-7 52 -46 -1 c-25 0 -78 -9 -118 -19z"/>
<path d="M1000 1508 c1 -2 9 -37 19 -78 l18 -75 143 -3 c79 -1 141 1 137 4 -4
4 -2 13 5 21 8 11 7 17 -8 28 -45 34 -136 76 -195 90 -56 13 -120 20 -119 13z"/>
<path d="M476 1119 c-53 -63 -21 -145 61 -156 37 -5 45 -2 73 25 64 64 25 162
-65 162 -36 0 -48 -5 -69 -31z"/>
<path d="M1586 1119 c-53 -63 -21 -145 61 -156 37 -5 45 -2 73 25 64 64 25
162 -65 162 -36 0 -48 -5 -69 -31z"/>
</g>
</svg>
